<?xml version="1.0" encoding="UTF-8"?>
<svg id="Layer_2" data-name="Layer 2" xmlns="http://www.w3.org/2000/svg" viewBox="0 0 1920 358.88">
  <defs>
    <style>
      .cls-1 {
        fill: #efd6b4;
      }
    </style>
  </defs>
  <g id="mountain_2" data-name="mountain 2">
    <path class="cls-1" d="M0,217.75c0-54.71,70.52-84.75,143.08-134.69,26.02-17.91,48.17-30.86,82.7-33.23,56.32-3.86,120.06,22.19,151.63,46.43,42.7,32.79,21.33,58.25,60.65,66.28,35.34,7.22,61.21-11.58,113.03-5.94,43.46,4.73,48.3,20.47,104.76,40.39,36.15,12.75,68.31,18.35,111.79,25.91,121.21,21.08,357.14,39.56,417.52,0,26.8-17.56,1.12-34.84,41.35-51.93,25.41-10.79,66.87-17.15,104.76-14.37,52.85,3.88,63.87,23.01,90.98,21.14,37.12-2.55,35.69-39.73,79.95-89.29C1534.92,51.83,1602.31-2.43,1662.09.08c25.46,1.07,69.75,13.28,90.98,20.14,9.85,3.18,21.89,7.52,41.35,9.48,27.94,2.8,36.88-2.76,49.62,0,30.28,6.55-5.95,41.01,35.84,66.57,14.77,9.03,40.12,11.09,40.12,14.98v244.48L0,358.88v-141.13Z"/>
  </g>
</svg>